<svg viewBox="0 0 738.7 301.1" xmlns="http://www.w3.org/2000/svg"><path d="M152.2 26.6C83.4 26.6 27.6 82.1 27.6 151s55.8 124.4 124.2 124.4c68.8 0 124.2-55.9 124.2-124.4.1-68.9-55.3-124.4-123.8-124.4z" fill="none"/><g fill="#fff"><path d="M152.3.9C69.3.9 2 67.9 2 151s67.3 150.1 149.9 150.1c83 0 149.9-67.4 149.9-150.1C301.7 67.9 234.8.9 152.3.9zm-.4 274.5c-68.4 0-124.2-55.5-124.2-124.4S83.4 26.6 152.2 26.6c68.4 0 123.9 55.5 123.9 124.4 0 68.5-55.4 124.4-124.2 124.4z"/><path d="M249.7 177.9c-1.7-1.7-4.2-4.6-6.8-10.5-3-6.7-5.1-15.9-7.6-24.3-7.2-23.9-14.4-48.1-34.7-48.1-9.7 0-17.8 5.9-23.7 17.2-4.2 8-7.6 18-10.6 27.6-3 8.8-5.9 17.6-9.3 23.9-2.5 5-5.1 6.7-5.9 7.1-5.5.4-8-2.1-14.8-11.7-6.3-9.2-15.2-21.8-33-21.8-18.2 0-27.1 14.2-33.4 25.1-6.3 10.5-9.7 14.2-15.2 15.5s-10.6 4.6-10.6 10.5 4.7 9.6 10.6 9.6c18.2 0 27.1-14.2 33.4-25.1 6.3-10.5 9.7-14.7 15.2-14.7 5.9 0 9.3 3.8 15.6 13 6.8 9.6 15.6 22.2 34.2 20.9 19-1.7 26.2-23.9 33.4-45.2 3-8.8 6.3-17.6 9.3-23.9 2.1-5 3.8-4.6 5.1-4.6s3-.8 5.9 7.1c2.5 6.7 5.9 15.9 8.5 24.3 7.2 23.9 14.4 48.1 34.7 48.1 4.7-.8 8.5-3.8 8.5-9.6s-7.2-8.7-8.8-10.4zm96.3-60.7c0-12.1 2.8-21.2 8.5-27.6 5.7-6.3 14.2-9.5 24.9-9.5l51.6.2v104.2c0 6.8.3 11.4 1.6 13.9 1.3 2.4 4.1 4.3 7.5 5.5 8.1 2.5 11.9 3.8 13.9 3.8V220h-20.1c-8.6 0-14.1-2.1-17.9-7.2s-5-13.4-5-25.8V95h-27.9c-5.6 0-9.6 2.4-12.3 5.3s-3.9 9.1-3.9 16.9v6.8h23v17h-23v79h-21v-79h-15v-12.2l15-3v-8.6zm123.1 93.7c-3.3-3.9-5.7-8.7-7.2-14.5-1.4-5.8-2.1-14.1-2.1-25s1.4-19.9 4.2-27c2.8-7.2 7.2-12.2 13.2-15.1s14.5-4.4 25.5-4.4c16.2 0 27.4 3.6 33.5 10.7 6.1 7.2 9.2 19.9 9.2 38.2s-3.1 30.9-9.2 37.7-17.3 10.2-33.5 10.2c-8.2 0-15-.8-20.5-2.5-5.3-1.6-9.7-4.4-13.1-8.3zm13.5-57.7c-.8 2.4-1.3 5.4-1.6 8.8s-.4 7.5-.4 12.3.2 8.8.5 12c.4 3.2 1 5.9 1.9 8.1.9 2.1 1.9 3.9 2.9 5.2 1.1 1.3 2.5 2.3 4.3 3 3 1 6.7 1.4 11.2 1.4s7.7-.1 9.7-.4 4-1 6.1-2c2-1 3.5-2.6 4.5-4.7 2-4.8 3-10.9 3-18.4s-.2-13-.4-16.4c-.3-3.4-.8-6.3-1.6-8.8-.8-2.4-1.6-4.4-2.6-5.7-1-1.4-2.3-2.4-4.1-3.1-2.9-1.2-6.6-1.8-11.1-1.9s-7.7 0-9.7.3c-1.9.2-3.8.7-5.6 1.5s-3.3 1.9-4.3 3.2-1.9 3.2-2.7 5.6zm83.9 57.7c-3.3-3.9-5.7-8.7-7.2-14.5-1.4-5.8-2.1-14.1-2.1-25s1.4-19.9 4.2-27c2.8-7.2 7.2-12.2 13.2-15.1s14.5-4.4 25.5-4.4c16.2 0 27.4 3.6 33.5 10.7 6.1 7.2 9.2 19.9 9.2 38.2s-3.1 30.9-9.2 37.7-17.3 10.2-33.5 10.2c-8.2 0-15-.8-20.5-2.5-5.4-1.6-9.8-4.4-13.1-8.3zm13.5-57.7c-.8 2.4-1.3 5.4-1.6 8.8s-.4 7.5-.4 12.3.2 8.8.5 12c.4 3.2 1 5.9 1.9 8.1.9 2.1 1.9 3.9 3 5.2s2.5 2.3 4.3 3c3 1 6.7 1.4 11.2 1.4s7.7-.1 9.7-.4 4-1 6.1-2c2-1 3.5-2.6 4.5-4.7 2-4.8 3-10.9 3-18.4s-.2-13-.4-16.4c-.3-3.4-.8-6.3-1.6-8.8-.8-2.4-1.6-4.4-2.6-5.7-1-1.4-2.3-2.4-4.1-3.1-2.9-1.2-6.6-1.8-11.1-1.9s-7.7 0-9.7.3c-1.9.2-3.8.7-5.6 1.5s-3.3 1.9-4.3 3.2c-1.1 1.3-2 3.2-2.8 5.6zm74.6 20.5c0-19.7 2.9-33.1 8.8-40.3 4.9-6.1 12.3-9.1 22.3-9.1 4.3 0 9.5.6 15.4 1.8s11.9 2.8 15.9 4.8V78h21v142h-17.1l-4.3-9.6c-3.2 2.6-7.8 5.3-13.9 7.7-6 2.4-11.7 3.7-17.1 3.7-20.7 0-31-15.9-31-48.1zm20.7 1.1c0 19.1 5 28.7 14.7 28.7 9.4 0 19-2.3 27-6.8v-51c-8-2.6-17.2-3.9-27-3.9-3.2 0-5.9.8-8 2.3-4.4 3.4-6.7 13.6-6.7 30.7z"/></g></svg>