<svg width="469" height="164" xmlns="http://www.w3.org/2000/svg"><g fill="#FFF"><path d="M82.49 19.85c-24.952-.004-47.45 15.024-57.001 38.075-9.552 23.052-4.276 49.588 13.366 67.233 17.642 17.645 44.177 22.925 67.23 13.377 23.054-9.548 38.085-32.043 38.085-56.995 0-34.067-27.613-61.684-61.68-61.69zm0 119.82c-32.104 0-58.13-26.026-58.13-58.13s26.026-58.13 58.13-58.13 58.13 26.026 58.13 58.13c-.039 32.088-26.042 58.091-58.13 58.13zM468.75 67a13.45 13.45 0 00-2.86-8.43c-3.47-4.4-9.36-4.86-9.36-4.86h-51.66a2.81 2.81 0 01-2.07-.71 3 3 0 01-.85-2v-5.9a2.68 2.68 0 01.84-2.07 2.74 2.74 0 012-.69h63.92v-5.18a13.24 13.24 0 00-2.64-7.84 12.86 12.86 0 00-9.58-5.17h-58.62a13 13 0 00-10.6 4.18 12.9 12.9 0 00-3.4 8.83v21.16a14.16 14.16 0 003.88 9.51 13.25 13.25 0 008.94 3.89h51.21a3 3 0 012.16 1 2.52 2.52 0 01.68 1.77v6.16a2.58 2.58 0 01-.68 1.81 2.69 2.69 0 01-2 .87h-69L347 24.15h-22.4L313.31 44.7l-11.23-20.55h-22.37L246.41 85l-23.55-27.43 32.53-33.14h-24.25l-32 32.12v-32.4H179v77.25h20.22v-44l38.22 44h22.46l30.9-56.65 11.28 20.57-19.73 36.08h22.44l31-56.7 30.92 56.7h89.87s6.07-.32 9.57-5.09a16.16 16.16 0 002.6-9.31V67z"/><path d="M272.99 96.9h.04l-.04-.05zm-94.3 15.62h22.91v3.49h-9.57v23.98h-3.94v-23.98h-9.4zm28.55.04h15.55v3.49h-11.63v8.38h11.24v3.51h-11.24v8.51h12v3.5h-15.92zm45.68 21.07v4.32a20.41 20.41 0 01-10 2.36 15.38 15.38 0 01-7.8-1.85 13.51 13.51 0 01-5.06-5.09 13.8 13.8 0 01-1.87-7 13.4 13.4 0 014.27-10.08A14.67 14.67 0 01243 112.2c3.32.1 6.584.87 9.6 2.26v4.22a19 19 0 00-9.4-2.74 10.85 10.85 0 00-7.82 3 10.51 10.51 0 00-.05 14.88 10.91 10.91 0 007.84 2.9 17.78 17.78 0 009.75-3.09zm26.1-21.07h3.93v27.43h-3.93v-11.95h-15.41v11.95h-3.93v-27.43h3.93v11.87h15.41zm33.71 0h3.72v27.43h-3.37l-18.33-21.12v21.12h-3.7v-27.43h3.18l18.5 21.3zm24.98-.39a14.76 14.76 0 0110.59 4 13.34 13.34 0 014.23 10.09 13.1 13.1 0 01-4.28 10 15.18 15.18 0 01-10.76 4 14.32 14.32 0 01-10.33-4 13.25 13.25 0 01-4.13-10 13.51 13.51 0 014.16-10.17 14.52 14.52 0 0110.52-3.92zm.15 3.73a10.64 10.64 0 00-7.73 2.94 10 10 0 00-3 7.52 9.83 9.83 0 003 7.38 11.29 11.29 0 0015.26-.06 10 10 0 003.08-7.48 9.81 9.81 0 00-3.08-7.33 10.38 10.38 0 00-7.52-2.97h-.01zm21.45-3.34h3.91v23.86h12.35v3.57h-16.26zm35.09-.39a14.77 14.77 0 0110.59 4 13.36 13.36 0 014.22 10.09 13.16 13.16 0 01-4.26 10 15.22 15.22 0 01-10.77 4 14.29 14.29 0 01-10.32-4 13.25 13.25 0 01-4.14-10 13.56 13.56 0 014.17-10.17 14.51 14.51 0 0110.51-3.92zm.16 3.73c-2.87-.1-5.66.96-7.74 2.94a10 10 0 00-3 7.52 9.85 9.85 0 003 7.38 11.3 11.3 0 0015.28-.06 10 10 0 003.07-7.48 9.8 9.8 0 00-3.07-7.33 10.4 10.4 0 00-7.54-2.97zm36.24 10.58h9.2v11.62a25.2 25.2 0 01-10 2.2c-4.547 0-8.177-1.333-10.89-4a13.17 13.17 0 01-4.07-9.81 13.64 13.64 0 014.21-10.24 14.64 14.64 0 0110.58-4.08 18.4 18.4 0 014.4.51 34.07 34.07 0 015.28 1.83v4a19.38 19.38 0 00-9.75-2.85 10.34 10.34 0 00-7.57 3.07c-4.116 4.215-4.116 10.945 0 15.16a10.93 10.93 0 007.93 3 18.59 18.59 0 005.64-1.08l.38-.12V130h-5.34v-3.52zm33.38-13.92h4.76l-10.13 12.92v14.51h-4.02v-14.51l-10.14-12.92h4.74l7.34 9.46zm-439.32-1.33V140H53a65.38 65.38 0 01-28.14-28.77zm27.32-87.05H24.79v28.43a65.33 65.33 0 0127.39-28.43zm88.49 27.52V24.26h-26.88a65.27 65.27 0 0126.88 27.44zM113.11 140h27.63v-27.79A65.34 65.34 0 01113.11 140zM21.06 61.93L.89 82.1 20.78 102a65.23 65.23 0 01.28-40.06v-.01zm41.88 82.23L82.77 164l20-20a65.14 65.14 0 01-39.87.21l.04-.05zm38.94-125.09L82.81 0 63.09 19.72a65.25 65.25 0 0138.79-.65zM145 101.59L164.59 82l-19-19a65.16 65.16 0 01-.59 38.59zM82.5 26.81c-30.227-.006-54.734 24.493-54.74 54.72-.006 30.227 24.493 54.734 54.72 54.74 30.227.006 54.734-24.493 54.74-54.72-.028-30.213-24.507-54.701-54.72-54.74zm41.62 75.94l-22.73-7.48 14.14 19.3-19.3-14.13 7.47 22.73-14-19.42.1 23.93-7.31-22.78-7.31 22.78.09-23.93-14 19.42 7.48-22.73-19.3 14.13 14.14-19.3-22.73 7.48 19.41-14-23.93.08 22.78-7.31-22.77-7.29 23.93.1-19.41-14 22.73 7.49-14.15-19.31 19.32 14.13-7.49-22.74 14 19.42-.09-23.92 7.31 22.78 7.32-22.78-.1 23.92 14-19.42-7.49 22.74 19.3-14.13-14.14 19.3 22.73-7.49-19.41 14 23.93-.1-22.78 7.31 22.78 7.31-23.93-.08 19.41 13.99z"/></g></svg>