<svg width="60" height="60" xmlns="http://www.w3.org/2000/svg"><path fill="none" d="M-1-1h62v62H-1z"/><g fill-rule="evenodd" fill="none"><path fill="#FFF" d="M30.724 16.382l22.165 7.042c1.953.621 2.035.935 3.108 3.342.84 1.882 1.285 2.883 2.124 4.765l-2.643.216-.172-.509c-7.81.773-11.184 1.18-19.279 2.076l-5.303-16.932zM16.61 20.757L2.405 38.97c-1.252 1.605-1.14 1.908-.65 4.478l.972 5.088 2.296-1.308-.148-.513c6.862-3.757 9.869-5.321 17.036-9.137l-5.3-16.82-.001-.001z"/><path fill="#161E3E" d="M40.654 31.592l-.966-.133a5.274 5.274 0 01-1.544 3.386c.23.802.419 1.612.545 2.423.212 1.371.261 2.963-.367 4.245l.528 1.674c.537 1.703-.432 3.529-2.155 4.06-1.722.53-3.57-.427-4.107-2.13l-.648-2.055a4.389 4.389 0 01-.34-.222 3.263 3.263 0 01-2.248 2.518c-1.723.53-3.57-.427-4.108-2.13-.303-.08-.583-.11-.862-.168-1.577-.332-2.642-1.501-3.378-2.9a5.373 5.373 0 01-3.282-1.93l-.718.65.408-1.082a5.208 5.208 0 01-.587-1.254l-.426-1.349c-.084.376-.217.74-.4 1.075-.42.772-1.18 1.439-2.127 1.293a1.656 1.656 0 01-.315-.08 6.183 6.183 0 01-.317.221c-.507.33-1.077.563-1.693.537a1.714 1.714 0 01-.346-.043c-.661-.136-1.238-.478-1.593-1.057-.706-1.15-.19-2.623.383-3.716.381-.726 1.228-2.072 1.947-2.523l.352-.469c.207-.275.391-.568.581-.854l1.191-1.794-.642-2.037a5.211 5.211 0 01.457-4.162 10.172 10.172 0 01-.903-2.048c-1.697-5.378 1.34-11.098 6.78-12.775 5.44-1.677 11.226 1.324 12.922 6.702.213.675.353 1.363.421 2.055a5.29 5.29 0 012.956 3.252l.655 2.077 1.913.763c.322.128.641.265.97.374l.56.188c.85-.036 2.323.593 3.055.975 1.1.574 2.374 1.495 2.458 2.837.042.676-.235 1.282-.7 1.766a1.69 1.69 0 01-.26.23c-.49.369-1.094.498-1.7.513-.13.004-.259.002-.388-.003-.062.088-.133.17-.212.244-.694.653-1.704.534-2.494.137a4.186 4.186 0 01-.852-.573l.4 1.269c.143.451.22.908.237 1.36l.959.663z"/><path fill="#161E3E" d="M36.716 18.928L40.12 29.72c.819 2.595-.657 5.376-3.282 6.185L24.365 39.75c-2.625.81-5.438-.65-6.256-3.245l-3.403-10.792c-.617-1.955.066-4.067 1.644-5.322.175-3.66 2.653-6.886 6.233-7.99 3.58-1.103 7.474.16 9.722 3.072 2.019.146 3.795 1.5 4.411 3.455z"/><path fill="#161E3E" d="M38.545 27.428l-.668-.248c-2.775-1.034-5.624-1.831-8.37-2.955l-.7-.287.119-.746c.191-1.217.618-2.57 1.824-3.136 1.39-.651 3.238.115 4.555.646l3.151 1.27c.325.13.654.272.985.383l.619.209c.766-.07 2.31.61 2.94.942.985.52 2.206 1.375 2.281 2.596.037.592-.208 1.117-.61 1.54-.135.142-.07.083-.22.197-.438.331-.975.44-1.512.453a6.702 6.702 0 01-.552-.012c-.065.123-.15.238-.259.342-.59.56-1.461.42-2.122.084a4.147 4.147 0 01-1.461-1.278z"/><path fill="#FFF" d="M12.698 31.983c-.5.24-3.602 4.528-1.172 5.03.98.202 2.078-1.38 2.247-.998.45 1.012 1.627-.326 1.526-1.995a6.053 6.053 0 01-1.361-.802c-.48-.37-.863-.728-1.24-1.235zm7.41-24.02a9.088 9.088 0 011.535-.333l1.214 3.07a8.481 8.481 0 00-3.445 1.066l-.758-3.21a9.074 9.074 0 011.454-.593zm1.566 12.853c-2.043.417-3.548.108-4.343-2.423l-.019-.062 1.996-.618c.018.066.037.132.058.197.525 1.672 1.306 2.542 2.308 2.906zm-4.536-3.321a4.57 4.57 0 01.3-2.051l1.887-.584a5.426 5.426 0 00-.185 2.015l-2.002.62zm6.793-6.778L22.707 7.63c3.821-.03 7.373 2.397 8.569 6.195a8.705 8.705 0 01-.376 6.233c-3.848 2.07-8.389 3.472-12.743 3.934a8.8 8.8 0 01-3.887-4.917c-1.196-3.798.334-7.793 3.494-9.919l.765 3.228c-2.14 1.626-3.195 4.17-2.453 6.526 1.3 4.13 4.185 3.315 8.132 2.096 3.946-1.218 6.787-2.171 5.487-6.3-.741-2.356-3.07-3.857-5.764-3.99v.001zm13.25 31.73l.353 1.127a1.915 1.915 0 01-1.265 2.394 1.933 1.933 0 01-2.411-1.256l-.452-1.44c.569.109 1.16.108 1.757.03.754-.098 1.452-.365 2.017-.855h.001zm-7.47-2.474l.528 1.682a1.915 1.915 0 01-1.265 2.394 1.933 1.933 0 01-2.411-1.256l-.054-.171a6.2 6.2 0 00.823-.294c1.043-.455 1.923-1.169 2.34-2.249l.039-.106zm3.695-16.151l-1.029.318a.443.443 0 00-.292.553l.36 1.147a.447.447 0 00.557.29l1.029-.318a.443.443 0 00.292-.553l-.36-1.147a.447.447 0 00-.557-.29zm-14.823 4.503l1.028-.318a.447.447 0 01.557.29l.36 1.147a.443.443 0 01-.292.554l-1.028.318a.447.447 0 01-.557-.29l-.36-1.147a.443.443 0 01.292-.554zm14.224-11.373a3.815 3.815 0 011.832 2.213l.418 1.333-.02-.008.011-.021c-.252-.803-1.44-.906-2.431-.707a4.436 4.436 0 00-.36-.037c.317-.9.501-1.832.55-2.773zm4.092 9.863l1.029 3.277.004.014a11.07 11.07 0 01-2.61-3.831c.527.176 1.053.355 1.577.54zm1.335 4.039a3.826 3.826 0 01-.832 2.639 43.852 43.852 0 00-.795-2.123l-.519-1.29c.655.321 1.37.584 2.146.774zm-18.391 4.553l.271 1.177c.15.649.342 1.374.6 2.098a3.865 3.865 0 01-2.06-1.658c.465-.522.86-1.064 1.189-1.617zm-1.488.665l-.005-.014-1.038-3.307c.326-.45.657-.895.99-1.34.319 1.401.396 2.996.053 4.66v.001zm-3.146-9.44l-.405-1.29a3.779 3.779 0 01.16-2.682 9.966 9.966 0 001.989 1.884c-.07.056-.137.115-.204.176-.902.4-1.77 1.131-1.54 1.91v.002zm9.31-2.83l1.66 5.285-.869.27a2.09 2.09 0 00-1.47 1.962 36.81 36.81 0 00-2.974 1.412c.774-3.093-.131-6.14-1.83-7.775.21-.027.419-.056.628-.087l.077-.012.155-.023.077-.012.077-.013.078-.012.153-.025h.001l.078-.013.004-.001.383-.067.077-.014.078-.014.077-.015.155-.029.077-.015.155-.03.077-.016.155-.031.077-.016.077-.016.078-.016.386-.084.077-.018c.18-.04.36-.082.54-.126l.077-.018h.001l.153-.038.077-.02.153-.038.077-.02.154-.04.077-.02.076-.02.077-.021.153-.042.077-.02.153-.043.076-.022.077-.021.076-.022.077-.022.076-.022h-.001zm-6.674 6.613a96.374 96.374 0 00-2.058 2.803c-.42-.144-.878-.401-1.318-.74a5.841 5.841 0 01-1.18-1.219c.181-.242.377-.545.625-.92l1.875-2.838.183-.275c.694.689 1.394 1.804 1.873 3.19v-.001zm22.276-6.99c.55-.087 5.56 1.68 3.851 3.468-.689.721-2.5.043-2.42.453.213 1.086-1.523.653-2.398-.775.264-.41.49-.9.658-1.43a6.07 6.07 0 00.31-1.717l-.001.001zm-9.61-1.8c.197-.097.392-.196.586-.297-.483 2.317.523 5.37 2.962 7.492a38.311 38.311 0 00-3.39.536 2.11 2.11 0 00-2.337-.792l-.93.288-1.66-5.285.078-.026.076-.025.077-.026.077-.026.077-.025.077-.027h.002l.074-.026.077-.026.057-.02.02-.007.076-.027.076-.027.035-.012.041-.015.077-.027.076-.028.012-.004.064-.023.076-.028.066-.024.01-.004.076-.028.12-.045.031-.012.076-.028.075-.029.023-.008.053-.02.15-.059h.001l.15-.059.054-.021.02-.009.15-.06.033-.012.043-.018.122-.05.027-.01.01-.005.03-.012.172-.071.011-.005.149-.062.041-.018.033-.013.148-.064.02-.008.053-.024.074-.032.073-.031.147-.066.051-.022.169-.076.03-.013.043-.02.134-.061.011-.006.01-.004.063-.03.133-.06.012-.007.144-.068.04-.018.033-.016.143-.069.019-.009.194-.095h.002l.072-.036zm4.132-.107l.228.091 3.17 1.27c.419.168.754.306 1.042.403a5.785 5.785 0 01-.27 1.669c-.167.527-.396.998-.658 1.354-1.08-.4-2.147-.756-3.213-1.108-.402-1.405-.47-2.716-.299-3.679zm-9.037 8.969l3.027-.937a.901.901 0 011.124.585l.571 1.82a.892.892 0 01-.59 1.115l-3.026.938a.901.901 0 01-1.124-.586l-.131-.418 1.55-.48a.9.9 0 00.88.2.889.889 0 00.588-1.115.897.897 0 00-1.672-.1l-1.655.512-.131-.418a.893.893 0 01.59-1.116h-.001zm9.712.544l.268.672c1.95 4.895 3.137 10.12-.565 10.607-3.065.403-4.125-1.847-4.889-5.316a4.026 4.026 0 001.748-1.897c-.813.491-1.753.916-2.782 1.237a12.709 12.709 0 01-2.991.564 4.021 4.021 0 002.542.565c.503 1.725.113 3.149-1.748 3.966-2.538 1.115-4.614-.073-5.788-5.21l-.16-.7a80.076 80.076 0 013.731-1.437 2.085 2.085 0 002.416.942l2.942-.918a2.087 2.087 0 001.453-2.14 96.377 96.377 0 013.823-.935z"/></g></svg>